<svg xmlns="http://www.w3.org/2000/svg" viewBox="0 0 300 300"><path fill="#F1DAC3" d="M158.1 251.3c-26.4 1.5-49.7-5.4-72.3-11.5-33.8-9.2-59.7-51.1-54.3-98.1C39.3 75 96.6 39.3 158.9 50c28.9 5 54.1 15.2 76.2 36.6a85.7 85.7 0 0113.6 109.3 136 136 0 01-35.9 38.6c-17 12.2-35.5 19.6-54.7 16.8"/><path fill="#D15B43" d="M269.2 180c-2.4 17.5-5.6 35.4-6.2 53.5-.5 12.9-1.9 25.6-6.5 37.9-4.3 11.4-12.2 16.6-23.9 17.1a75 75 0 01-33.6-7.4 146 146 0 01-41.8-27.8 46.7 46.7 0 01-14.4-48c5.6-23.6 17.7-44 33.4-61.9 12-13.7 29.2-14.6 46.1-12.6 23.4 2.6 41.7 18.2 45.8 38.5.6 3.4.7 6.8 1.1 10.7"/><path d="M106.9 137.2c0 .5.4.6.6.7a118 118 0 0017.5 4.4c4.7.7 10 .3 13.2 5.3-.2-2-1.3-3.2-3-4-2-1-4.2-1.6-6.3-1.8a102 102 0 01-20.4-4.6c-.5-.1-1.1-.6-1.6 0M199.3 23.4c1.3-2.6 2.8-5.1 3.9-7.8a88.7 88.7 0 00-14 38.6c-1.2-3-2.6-5.9-4.6-8.6-.3 2.1.1 4.1.5 6.1a16 16 0 002.3 5.4c.8 1.2.9 2.5.6 3.9a144.3 144.3 0 01-12.7 35.1c1.3-5.6.7-11.1-.7-16.5-.1-.6 0-1.4-.8-1.5-.7-.1-.8.7-1 1.2a14.2 14.2 0 00-1.1 9.9c.7 2.9 1.1 5.8 1 8.8-.3 4.6-2.7 8.2-5.1 11.8a108 108 0 01-5.8 8c-.3.4-.7.7-.4 1.7 1.5-1.9 3.1-3.6 4.3-5.5 6.3-10.3 14.1-19.5 21.6-28.9.6-.8 1.4-1 2.2-1.3a38.6 38.6 0 0016.3-9.6c.9-1 1.5-2.2 2.3-3.2.3-.4.8-1 .3-1.5-.4-.5-1.1-.3-1.6-.1a26 26 0 00-6.7 4.2c-2.9 2.3-5.5 5-8.6 7.1l-.3.2 8-10.1c2.7-3.2 5.5-6.2 8.3-9.3a7.2 7.2 0 014-2.2 44.1 44.1 0 0017.4-7.4c.8-.7 1.9-1.4 1.2-2.6-.8-1.3-2-.7-3-.2-2.9 1.3-5.3 3.6-8.2 5.1-2.4 1.3-4.8 2.7-7.5 3.5 10.1-11.3 21-21.9 32.2-32.1-5.9 4.1-10.9 9.3-16.4 14.1.4-2.3.8-4.5.7-6.7-.1-1-.2-2-.5-3-.1-.4-.1-1-.7-1-.5 0-.7.5-1 .8a7 7 0 00-1 5.4c1.1 5.3-1.2 8.8-4.9 12.3-4.8 4.4-9 9.5-13.5 14.2l-.9.8c.5-2.8.9-5.6 1.1-8.4.1-1.1.7-2.8-.9-3.1-1.3-.2-1.8 1.4-2.2 2.5-.9 2.9-1 6-.3 9 .4 1.6 0 2.7-1 3.9a752 752 0 00-26.8 32.3c2.3-4.8 4.6-9.6 6.6-14.5a5 5 0 011.4-1.5c3.2-2.8 5.8-6.1 7.9-9.8.3-.5.9-1.2.4-1.7-.7-.6-1.3.2-1.7.6-2.1 1.8-3.6 4.2-5.2 6.4l-.8 1.3c3.9-11.1 5.8-22.5 8-33.9.4-2.1 1-3.7 3.3-4.7 3.3-1.5 5.1-4.7 6.9-7.8.2-.3.4-.6.1-.9-.3-.3-.7-.1-1 .1a15 15 0 00-4.3 3.6c-1.1 1.3-2.1 2.7-3.3 3.9.4-2.9 1.3-5.6 2.4-8.3a51 51 0 013.3-8.1m7.2 47.1a50 50 0 01-11.6 8.8c3.6-3.2 7-6.7 11.6-8.8m-32.7 26c.8-5.3-.6-10.6 0-15.9 1.3 5.3 2.2 10.6 0 15.9"/><path d="M230.6 253.1c-1-11-3-22-4.9-32.9-1.7-9.5-3.6-18.8-4-28.4-.2-4.3-.5-8.7-1.4-12.9l-3.9-19.4c-.9-4.2-1.5-8.2-4.7-11.4a32.5 32.5 0 00-24.1-10.5h-.5v-.2h-.4c-6 .1-11.9 1.3-17.9-.2-3-.7-5-2.2-6.7-4.9a67.4 67.4 0 01-4.5-8.9c-.5.3-1.1 1.1-.9 1.7 1.9 7 5.9 11.2 12.4 13.9 1.5.6 2.7.4 4 .7 1.7.4 2.6.7 2.8 2.7l.2 3-18.8 1.3c-.7-7.7-2-15.2-5.3-22.5a9.7 9.7 0 01.9-10.2c2.4-3.3 4-7 4.7-11 1-5.8 2.3-11.5 4.3-17 .3-.9 1-2.2.1-2.8-.9-.6-1.4.9-2.2 1.2l-.5-.1c1.2-3.4 2.5-6.7 4.4-9.8 1.2-2 2.4-3.9 5.1-4.4 1-.2 2.1-1 2.9-1.7l8.5-7.1c.6-.5 1.4-1 1-1.9-.4-1-1.4-.8-2.2-.6-4.9 1-8.9 3.5-12.2 7.2-.5.6-1 1.4-1 2 0 2.1-1.2 3.6-2.2 5.1a32.3 32.3 0 00-3.1 5.8c-1.1 2.9-1.8 6-3.4 8.7a48.7 48.7 0 00-6.4 17.5 1084.6 1084.6 0 011.6-31.1c.3-4.2.3-4.2 4.4-4.8l.8-.2c1.5-.5 1.8-1.3.7-2.5-.8-.9-1.7-1.7-2.6-2.4-1-.7-1.2-1.4-.8-2.5 1.2-3.7 2.6-7.3 4.6-10.7 2.8-4.9 6.3-9.4 10.2-13.5 4.3-4.5 8.2-9.4 12.7-13.7 4.1-3.8 5.7-8.4 7.3-13.3.3-.8.5-1.8-.5-2.2-.9-.4-1.4.4-1.9.9-3.4 3.5-5 7.9-5.7 12.5a5.3 5.3 0 01-1.4 3l-4.4 4.9c-.9.9-1.6 2-3.1 2.7 0-.8-.1-1.3.1-1.7 1.9-4 1.4-8.1 1.1-12.3-.1-1.9-.6-3.8-.9-5.6-.1-.8-.4-1.7-1.3-1.7-1.1-.1-1.2 1-1.5 1.7l-.2.8c-.7 3.6-.6 7.3-.3 11 .1 1.6.3 3.3 1.2 4.7 1.5 2.4.8 4.5-.8 6.4-1.7 2.1-3.6 4-5.3 6-1.7 2.1-3.3 4.4-5 6.7-.6-1.5.1-2.9-.3-4.1-1.2-3.9.5-7.5 1-11.2.2-1.3.9-2.3 2.5-2.3 1.3 0 2.2-.9 1.1-2-1.3-1.4-1-2.4-.2-3.7.4-.7 1-1.5.2-2.3-.7-.7-1.6-.6-2.4-.4-.6.2-1.3.3-1.7.7-1.8 1.8-3.1 1.1-4.7-.5-2.5-2.5-4.6-1.8-5.4 1.6l-.3 1.2c-.1.7-.5.8-1.2.7-2.5-.5-2.9-.1-2.3 2.4 1 3.9 3.3 7.1 5.6 10.4 1.7 2.4 4.3 4 5.8 6.9 1.4 2.7 1.1 4.9-.2 7.4-1.1-1.4-2.4-1.3-3.7-1.1-2.8.3-5.4 1.1-7.7 2.7-.5.4-1 1-1.9.8 0-3.8-1.3-7.2-3.6-10.2-.5-.7-1-1.5-2-1.4-1 .2-1.2 1.1-1.4 1.9-.9 2.7-1.2 5.5-.4 8.3.5 1.7 0 1.9-1.5 1.3-2.5-1-5.2-1.2-7.9-1.1-.9.1-1.8.1-2.2.9-.5.9.3 1.6.8 2.2.9 1.2 2.1 2.1 3.3 3 1.7 1.3 3.7 1.8 5.7 2.7a18.1 18.1 0 00-6.7 8.1c-.3.8-.9 1.6-.2 2.4.6.7 1.6.5 2.4.3a19 19 0 006-2.7l3.1-2.4c0 3.7 1.1 6.7 2.8 9.5.5.8 1 1.9 2.2 1.8 1.1-.2 1.3-1.4 1.6-2.3.9-2.2.9-4.6 1-7.3 2.9 4.9 4.5 9.6 3.9 15.1-.5 4.6-.6 9.3-.8 14-.3 7 0 14 .2 20.9a46.6 46.6 0 01-7.1-22.3c-.1-.9.3-1.4.9-2a9.7 9.7 0 002.7-8.4c-.1-.8-.1-1.7-1-1.9-.9-.2-1.2.7-1.6 1.4a16.6 16.6 0 00-2.2 9.4l-2-2.4c-.5-.6-.9-1.4-1.8-1.1-1 .4-.9 1.4-.8 2.2.3 3.2 1.4 6.1 4.2 8 .8.6 1.5 1.2 1.7 2.3.8 5 3 9.4 5.3 13.8a57.5 57.5 0 017.5 26.3c-3-14.4-12.4-24.9-21.5-36.3l.4 3c.8 3.3 2.3 6.2 4 9.1l8.3 13.1c2.7 4.2 4.8 8.5 6.2 13l-.5.2c-1.8 1-2.5 2.6-2 4.4.3 0 .5-.2.5-.4.2-1.8 1-2.8 2.3-3.4a44.5 44.5 0 011.5 17.9c0 .4-.1.9.5 1 .5-.2.5-.6.7-1 1.7-3.9 1.7-8 1.4-12.3l-.5-6.2 14.6-1 4.2-.3a31 31 0 01-16.2 30c-2.3 1.5-5.3 2.3-8.1.8-8-4.2-15.8-9.3-22.4-15.6-8.8-8.3-16.8-17.3-25.6-25.6-1.6-1.5-1.6-2.4.8-3.3 3.5-1.4 7.7-2.2 11.1-4.7 1.9-1.4 3.7-3.6 3.9-6.2-2.2 2.2-4.4 5.2-7.4 6.4a75.1 75.1 0 01-19 5v-.1c-2.3.2-4.7.1-7 0-4.4-.1-8.8.5-12.9 2.1a23.3 23.3 0 00-15.2 15.2 93.7 93.7 0 00-4 32.4c.1 5.2.7 10.3.3 15.5-.3 4-1.1 8-1.6 12-.7 5.8-1 11.5-1.5 17.3-.9 10.5-1.9 20.9-1.5 31.5.2 4.6 2.2 8.2 6.3 10.4 5.8 3 11.7 5.3 18.2 6.3 5.6.8 11.4.9 17.1.7 3.3-.1 5.3.7 7.4 3.2l.8 1c4.8 5.2 9.2 9.3 16.4 10.5a23 23 0 0015.3-1.5c3.7-2 6.7-5 9.8-7.9 1.7-1.6 3.1-3.9 4.6-5.8 1.2 1.1 2.8 2.4 3.5 3.8a8 8 0 003.6 3.5 6 6 0 012.9 3c.5 1.1.9 2.3 2.2 2.7 4.5 1.6 8.1 3 12.8 1 3.6-1.6 7.6-2.6 10.9-5 3.8-2.8 7.5-5.8 10.4-9.6.9-1.1 1.7-1.1 2.8-.4 2.5 1.7 5 3.6 7.8 4.9 8 3.7 15.6 4 23.5-.2 6.1-3.2 7.5-7.5 6.6-14-.6-4.1-1.6-8.4-2.1-12.7M169.3 64.8a25 25 0 019.2-5c.5-.1 1-.4 1.3.3.2.5-.2.8-.6 1l-6.8 5.7c-.6.5-1.4.7-1.8.7-1.2-.1-2.3 0-2.6-.8-.4-.9.7-1.4 1.3-1.9m-7.8 19.6c-1.7 5.6-3.7 10.4-4.3 15.6-.6 5.1-2.5 9.7-5.3 13.9l-.6.9c-.9-8.5 2.1-23.6 10.2-30.4m25.9-74.2c.2-.2.5-.3.7-.3.4.1.4.6.3.9-.8 2.8-1.6 5.7-3.3 8.2-.3.4-.8.9-1.4.7-.6-.2-.5-.8-.5-1.4a18 18 0 014.2-8.1m-16.8 14.2c-.4-4-.5-8 .9-11.9 1 3.9 2.2 7.8 1.2 11.9-.1.5-.3 1.2-1 1.1-.8.1-1-.6-1.1-1.1m-19.9-.3c.5-2.2 1.6-2.6 3.5-1.4l1.6 1.4c2.3 2.4 2.3 2.7-.4 4.4l-.2.1c-.9.3-1.3 1.8-2.6 1.3-.9-.4-2.1-2.9-2.1-4.5l.2-1.3m2.5 15.1a30 30 0 01-6.1-10.3c-.2-.6-.9-1.6 0-2.1.8-.4 1.4.4 2 .9 2.2 1.9 3.8 4.2 4.9 6.8 1 2.3 2 4.6 2.3 7.4-1.3-.8-2.2-1.7-3.1-2.7m4.4 2.1c-1.1-3.3-1.9-6.1-3.3-8.7-.4-.7-.1-1.2.6-1.5a9 9 0 014-.5c.7.1 1.1.3.8 1.1-1 2.9-1 6.1-2.1 9.6m-3.8 20.2c-.3.9-.7 1.1-1.6.7l-3.1-1.2a34 34 0 006.6-5.1l-1.9 5.6m-9.6-4.5c2.7-2.7 6.1-4 9.9-4.2.9 0 1.8 0 1.3 1.4-1.2 3-7.2 7-10.4 6.8-.4 0-.8-.1-1.2-.5.5-1 1.7-1 2.1-2.1-1.1-.3-1.7.8-2.8 1-.1-1.1.5-1.8 1.1-2.4m-6.4-11.1c.3-.8.6-1.3 1.5-.5 2.9 2.5 4.4 9.6 2.5 13.3-.9-2.1-.5-4.3-2.1-6.5-.1 2.6 1.1 4.6.8 7-2.3-1.8-2.9-4.3-3.3-6.8-.5-2.2-.2-4.4.6-6.5m-11.3 11.3c-.4-.4-.9-.8-.6-1.5.2-.5.9-.4 1.3-.4 2.9-.2 5.8 0 8.4 1.4 1.6.8 3 1.8 3.5 3.7-1.4.1-1.9-1.2-3.3-1.8.4 1.7 1.8 2.1 2.6 3-.8.6-1.6.8-2.5.6-3.7-.5-6.8-2.3-9.4-5m10.8 12c-2 1.8-4.4 3.1-7 3.7-.8.2-1.9.4-1.6-1.1.6-3.5 5.9-8.3 9.6-8.7l.7.2c-.7 1.7-2.6 2.1-3.9 3.7 2.3-.2 3.3-1.8 5-2.8a7.6 7.6 0 01-2.8 5m7.7 8.5c-.2.5-.3 1.2-1 1.2-.6.1-.8-.5-1-.9-2-3.1-3.1-6.5-2.6-10.2.1-.8.2-1.5 1-2.2.9 1.5.2 3.4 1.7 4.9.3-1.9-.5-3.6-.3-5.4 1.5.4 2.1 1.6 2.4 2.7.9 3.2.9 6.6-.2 9.9m.4-11.7l-.7-.8c-.3-.4-1-.8-.6-1.4.3-.5.9-.2 1.4-.1.9.1 1.8.3 2.7-.5-.9-.7-2 0-2.8-.8 3-.7 5.5.1 8 1.5 1.4.8 2.8 1.7 3.8 3 .4.5.8 1.3-.2 1.4-4.1.3-8.1.5-11.6-2.3m1.4 2.5l.7-.1c4.5 1 4.5 1 3.9 5.6l-.3 3.3c-1.3-3.3-2.7-6-4.3-8.8m5.5 73.7a161 161 0 00-10-17 52.3 52.3 0 01-5.8-10.3c-.1-.4-.5-.7-.4-.9a70.9 70.9 0 0119.2 33l-1 .2c-.5-1.7-1.2-3.4-2-5m4.2 20.3c.1-5-.5-9.8-1.8-14.4l1-.2.8 3.1c.7 3.8 1.1 7.7 0 11.5m-30.1 69.6c8.2-1.4 17.2-3.2 25-3.5a226 226 0 0137.9 2c2.6.3 3 1.1 3.1 3.4.2 5.3-.1 10.6.1 15.9h-3.1l-4.7-.2c-3.2-.2-6.3-.2-9.3.8a45 45 0 01-7.9 1.8 26 26 0 00-7 2.1c-4.3 2.1-8.7 3.5-12.8 6-.9.5-2 .7-3 1-.6.2-1.5.3-1.9.7-1.7 1.8-3.2.9-4.8-.1-4.2-2.7-8.3-4.6-12.2-7.5-.8-.6-1.6-1-2.6-1-5.6.1-11.1-1.1-16.7-1-4.2.1-8.2-.9-12.4-.7-.8 0-1.2-.4-1.4-1.2l-.4-3h.5c0-1.8-.3-4-.5-5.7-.4-2.3 1.2-3.2 3-3.7 10.2-2.6 21-4.4 31.1-6.1m16.4 44.8a30.8 30.8 0 01-18.6 3.1l-6.1-1.1c-.5-.1-1.1-.2-1.2.4 0 .6.6.5 1 .6 3.5.4 6.9 1.1 10.4 1.4 4.7.4 8.6-1.2 12.9-2.8l1.5-.6a19.4 19.4 0 01-21.4 8.4c-2.9-.6-5.1-1.2-8-1.4-.3 0-.7.1-.9.4.4.6 1 .6 1.7.7 2.6.1 4.9.6 7.4 1.4 3.9 1.2 7.2 1.1 11-.4.3-.1.6-.3.9-.1-.1.5-.5.9-.9 1.1-3.1 1.3-5.9 2.9-9.4 2.8-4.2-.1-8.3-1.2-12.4-2.1-1.7-.4-3-1.3-4.3-2.5-2.9-2.8-5.5-5.7-8.3-8.7-1.7-1.8-3.7-2.3-6.2-2.2-5.6.3-11.4.1-17.1-.6-6.2-.8-12-3-17.6-5.7-4.4-2.1-6.3-5.7-6.5-10.4-.4-9.1.4-18.1 1.1-27.2l1.9-21.1c.4-3.8 1.2-7.6 1.6-11.4.3-3.8.1-7.4 0-11.2-.4-13.3-.3-25.9 4.3-38.6a21.4 21.4 0 0113.6-13c5-1.9 10.4-2.2 15.7-2.1h1.6c-.1.5-.3 1-.7 1.4l1.4.1c.9.1 1.5.8 1.9 1.6a34 34 0 015.1 21.7 120.8 120.8 0 01-15.2 40c-.3.6-.6 1.3-1.4 1.2-.8-.1-1-1-1.3-1.7l-2.9-7.7c-1.1-3-2.4-5.9-3.6-8.8l-.9.3c.3 2.1.8 4.4 1.8 6.3.6 1.3.9 2.1.7 3.4l.8.7c.4.5.4 1.1.4 1.7.8.4 1 1 1.3 1.8l.6 1.9c3 9.8 6.3 19.5 9.2 29.2 1.4 4.8 2.3 9.6 2.9 14.5h-.4c.4 2.9.8 5.9 1.4 8.7.2 1-.1 1.5-1.2 1.7-3.2.6-6.6.9-9.9.3-3.9-.6-6.3-2.9-6.9-6.8-.6-3.9-.1-7.8.8-11.6 1.9-8.1 4-16.2 6.1-24.3a8 8 0 00-.4-.9l-.2-.3c-2.6 9.1-4.8 18.2-6.9 27.5a34 34 0 00-.2 11.9 23.3 23.3 0 00-8.2-3.7l-3.6-.4c-.4 0-.8 0-.9.5 0 .5.4.5.8.6 1.1.1 2.3.1 3.4.3 3.6.6 6.5 2.4 9.3 4.6 4.5 3.7 9 4.3 14.5 3.6 4.8-.6 8.9-.9 13.7-.2 3.3.5 6.4-.1 9.8.4 3.4.5 7 .8 10.5.7 1 0 2 .2 2.8.8 3.7 2.8 7.8 4.8 11.8 7.3.6.4 1.4.7 1.1 1.6-.3.9-1.1.8-1.9.9-5.6.2-9.9-1.6-14.4-4.7-1.5-1-3.1-2.2-4.3-3.5-.1 1.2.8 2.1 1.5 2.7 3.5 2.8 7 4.6 11.1 6.2.8.3 1.6.4 2.4.4 2.9-.1 5.8.4 8.6-.1.3 0 .9 0 .8.2-.4 1.4.5 2.8-.1 4a4 4 0 01-3 2.3c-5.3 1.2-10.1.9-15.3-.9-1.5-.5-3-1-4.6-.9-.2.5.3.8.6.9 2.9.7 5.7 1.7 8.6 2.3 4.1.9 7.9.1 11.9-.8 1.6-.3 2.2-1.9 3.3-3 .4 1.2 1.3 2.4 1.6 3.7.6 1.7-.5 2.8-1.8 3.3m83.1 2.1a24.5 24.5 0 01-21.3 1c-3.5-1.3-6.3-3.6-9.3-5.6-1.5-1-2.6-1.1-3.8.4-3 3.9-6.7 6.8-10.5 9.7-2.3 1.7-4.8 2.6-7.4 3.6-.5.2-1.1.3-1.6.6a14.6 14.6 0 01-12.9-.1c-1.2-.5-1.8-1.5-2.3-2.7 3.6 1.7 6.7.6 10.3-.6 2.8-.9 5-1.7 7.9-2 .4 0 .8-.3.8-.8-2-.2-4 .3-5.9.9-2.5.8-5 1.8-7.5 2.3-2.1.5-3.7 0-5.5-1.1l-3.4-2.2c5.9-.9 11.3-2.9 17-4.6.2-.1.5-.3.4-.7-.7-.4-1.5 0-2.2.2-4.4 1.3-8.7 2.9-13.2 3.8a4 4 0 01-3.5-.7 31.2 31.2 0 01-4.6-4.3c-.4-.4-.8-.8-.6-1.5.3-.7 1-.6 1.6-.5 6.9.8 12-1.9 17.9-5l.6-.5.1-.4c-.7-.3-1.3.2-1.9.5l-4.4 2.2c-4.5 2.2-9 2.8-13.8 2.1-1.7-.2-2-1.3-2.3-2.8a4 4 0 01.9-3.8c.2-.3.7-.2 1.1 0 2.3 1.3 4.7.4 6.7-.6 5.5-2.7 10.2-5.6 15.4-8.5a2 2 0 001.1-1.8c-1.8 1-3.7 1.9-5.4 3a120 120 0 01-9.9 5.6c-2.7 1.4-5.2 2.3-8.5 1.2-1.1-.3-2.6.5-3.1-1.2 2.6-.2 3.8-.4 5.5-2.7 1.1-1.6 3.3-2.5 5.4-3.2a61 61 0 006.6-2.7c2.5-1.2 5.2-1.9 7.9-2.4a47 47 0 007.2-1.7c3.1-1 6.3-1.1 9.5-.8 2.6.2 5.1.1 7.6.2l.1 1.9h1.8l-.1-1.7c4.2.5 7.9 2.4 11.8 3.8 4 1.4 8.1 2.2 12.2 3.3l.5-.1c.1-.7-.5-.8-.9-.9-1-.4-2.1-.7-3.1-.8-3.5-.4-4.8-2-5.4-5.5-1.3-7.4-3.8-14.6-6.1-21.8l-2.2-7.9-.5.3-.4.1c1 4 2.2 8 3.5 11.9 2.1 6.4 3.9 12.7 5.2 19.3.1.6.5 1.3 0 1.7s-1.1 0-1.6-.2l-10.3-3.7c-1.2.3-2.1-.1-2.8-1-.2-3.1-.4-6.2-.4-9.2 0-10.1 3.6-18 8.1-26.8a35.6 35.6 0 003.7-23.3c-1.2-7-3.2-13.2-1.9-20.4l-.4-1c-1.4 1.9-1.6 4-2 6.2-5.4-11.4-10.6-22.9-15.7-34.5-.4-1-.1-1.4.9-1.5h.9l-.2-.7c1.7 0 3.4-.2 5.1.2a34.1 34.1 0 0119.3 10.9c2.5 2.9 3 6.6 3.7 10.2l3.9 19.4c.8 4.2 1.2 8.5 1.4 12.7.4 8.7 2 17.1 3.5 25.7 2.2 12.1 4.4 24.3 5.5 36.6.4 4.2 1.6 8.5 2.1 12.5.8 5.6-.8 9.9-5.9 12.5"/></svg>